<?xml version="1.0" standalone="no"?>
<!DOCTYPE svg PUBLIC "-//W3C//DTD SVG 20010904//EN"
 "http://www.w3.org/TR/2001/REC-SVG-20010904/DTD/svg10.dtd">
<svg version="1.0" xmlns="http://www.w3.org/2000/svg"
 width="664.000000pt" height="664.000000pt" viewBox="0 0 664.000000 664.000000"
 preserveAspectRatio="xMidYMid meet">
<metadata>
Created by potrace 1.11, written by Peter Selinger 2001-2013
</metadata>
<g transform="translate(0.000000,664.000000) scale(0.100000,-0.100000)"
fill="#000000" stroke="none">
<path d="M1944 6525 c-16 -39 -12 -79 9 -104 8 -9 17 -32 21 -51 3 -19 13 -48
22 -65 9 -16 17 -42 19 -56 3 -31 80 -191 88 -183 3 4 4 -9 2 -27 -3 -23 3
-46 20 -74 13 -23 25 -53 27 -66 2 -13 11 -35 21 -49 9 -13 17 -32 17 -41 0
-9 9 -28 20 -42 25 -31 25 -37 1 -37 -11 0 -26 -9 -33 -19 -25 -35 -93 -68
-149 -70 -8 -1 -34 -17 -56 -36 -23 -19 -47 -35 -53 -35 -14 0 -58 -34 -127
-97 -25 -24 -52 -43 -60 -43 -7 0 -27 -13 -45 -30 -17 -16 -36 -30 -43 -30
-22 0 -65 -41 -65 -62 0 -12 -3 -19 -6 -15 -3 3 -18 -5 -33 -19 -41 -38 -62
-41 -85 -11 -12 15 -41 51 -65 82 -24 31 -75 79 -113 107 -37 28 -74 63 -81
77 -7 14 -18 25 -25 24 -6 -2 -9 3 -6 11 6 16 -45 59 -90 76 -63 24 -115 -19
-99 -81 7 -26 73 -96 86 -91 5 1 6 -2 3 -7 -9 -15 25 -43 46 -38 10 3 16 1 12
-4 -3 -5 -1 -9 5 -9 5 0 12 -9 16 -20 3 -11 19 -27 35 -37 16 -9 27 -20 25
-23 -8 -13 26 -50 45 -50 10 0 27 -11 38 -25 25 -31 36 -32 22 -2 -10 20 -10
21 4 4 8 -11 12 -25 10 -32 -3 -7 1 -19 8 -26 8 -8 21 -25 30 -37 15 -22 15
-26 -8 -60 -13 -21 -32 -46 -42 -57 -10 -11 -29 -36 -42 -55 -13 -19 -37 -46
-52 -59 -15 -13 -28 -31 -28 -40 0 -9 -9 -22 -19 -28 -28 -18 -81 -98 -83
-127 -1 -14 -11 -29 -24 -35 -13 -6 -25 -23 -29 -43 -4 -18 -16 -39 -26 -46
-11 -7 -19 -23 -19 -36 0 -13 -9 -31 -19 -40 -11 -10 -23 -32 -27 -49 -8 -39
-35 -97 -45 -97 -3 0 -18 9 -32 20 -14 11 -30 20 -36 20 -6 0 -11 5 -11 11 0
6 -7 8 -16 5 -8 -3 -12 -2 -9 4 3 5 -8 9 -27 9 -44 -1 -124 30 -192 76 -35 23
-62 34 -74 31 -18 -6 -139 50 -172 79 -22 19 -135 65 -172 69 -35 4 -77 -29
-79 -61 0 -10 -2 -26 -4 -35 -4 -20 74 -88 100 -88 9 0 29 -10 45 -21 19 -15
38 -20 59 -17 17 2 31 1 31 -2 0 -8 59 -34 115 -51 22 -6 67 -28 100 -49 33
-21 76 -41 95 -45 19 -4 71 -25 115 -46 44 -21 88 -39 97 -39 14 0 15 -5 8
-31 -5 -17 -13 -36 -18 -42 -15 -21 -45 -111 -49 -147 -6 -63 -7 -70 -15 -70
-8 0 -32 -43 -43 -79 -4 -14 -3 -21 3 -18 6 4 7 -8 2 -33 -4 -22 -6 -40 -4
-40 2 0 -5 -20 -16 -45 -11 -25 -19 -60 -19 -78 0 -17 0 -48 0 -67 1 -56 -9
-153 -18 -184 -12 -38 -19 -40 -178 -35 -129 3 -165 -5 -165 -36 0 -14 10 -43
21 -65 18 -35 26 -41 45 -36 12 3 26 1 29 -4 4 -6 11 -8 16 -5 5 4 9 1 9 -5 0
-8 15 -9 48 -5 26 3 72 8 103 9 l56 3 16 -39 c14 -30 15 -42 5 -57 -9 -15 -8
-26 6 -56 11 -22 16 -51 14 -73 -3 -20 1 -48 9 -62 7 -14 13 -33 13 -42 0 -10
5 -18 11 -18 5 0 7 6 3 13 -4 7 -3 9 2 4 5 -5 10 -13 10 -18 1 -5 2 -14 3 -20
0 -5 6 -7 13 -3 7 4 8 3 4 -4 -4 -7 -14 -12 -22 -12 -9 0 -12 5 -8 12 4 7 3 8
-4 4 -15 -9 -16 -38 -2 -52 5 -5 12 -35 15 -67 2 -32 9 -66 15 -77 5 -10 8
-34 6 -53 -5 -35 24 -97 44 -97 6 0 9 -4 6 -8 -3 -5 1 -26 8 -48 8 -21 13 -55
12 -74 -1 -34 -2 -35 -36 -32 -31 3 -41 -3 -72 -36 -20 -21 -38 -47 -42 -58
-3 -11 -4 -8 -2 8 4 38 -30 45 -64 14 -44 -42 -170 -95 -210 -89 -12 2 -28 -1
-34 -6 -39 -32 -129 -71 -151 -65 -20 5 -32 -1 -60 -29 -20 -20 -48 -40 -63
-45 -23 -7 -27 -14 -27 -48 0 -31 4 -39 20 -42 11 -2 29 -12 40 -23 19 -17 24
-17 60 -4 22 8 47 14 54 15 8 0 27 11 41 25 15 15 43 28 65 30 21 3 63 16 94
29 31 13 71 29 88 36 18 7 33 16 33 21 0 5 20 14 45 20 25 6 45 15 45 20 0 5
3 8 8 7 19 -4 90 16 112 32 14 9 37 21 50 25 14 4 36 14 48 22 21 13 26 13 43
-3 10 -9 19 -25 19 -36 0 -10 8 -26 18 -36 9 -9 16 -28 14 -41 -3 -16 6 -32
30 -55 20 -17 42 -53 52 -81 32 -90 46 -117 66 -122 11 -3 20 -10 20 -17 0 -6
18 -30 40 -54 22 -23 40 -45 40 -47 0 -3 0 -8 0 -12 0 -5 16 -25 35 -47 19
-21 35 -44 35 -52 0 -7 10 -20 23 -29 12 -8 34 -31 49 -51 l26 -36 -54 -53
c-49 -50 -59 -65 -55 -88 1 -5 -3 -6 -9 -2 -9 5 -14 -7 -11 -27 0 -3 -13 -9
-29 -13 -17 -4 -47 -25 -68 -47 -20 -21 -67 -70 -104 -108 -38 -38 -68 -73
-68 -78 0 -4 35 -7 78 -7 42 1 82 -3 88 -7 7 -5 15 2 22 17 7 14 20 25 31 25
11 0 27 14 40 35 11 19 27 35 35 35 18 0 136 118 136 136 0 7 10 19 23 25 12
6 34 23 50 37 15 14 27 21 27 14 0 -20 62 -82 122 -123 32 -22 58 -44 58 -49
0 -5 15 -17 33 -25 45 -22 121 -65 127 -73 9 -12 150 -102 159 -102 5 0 20
-13 33 -29 13 -17 34 -32 48 -34 14 -2 42 -11 64 -20 21 -9 45 -17 53 -17 10
0 11 -5 4 -18 -5 -10 -11 -29 -13 -43 -2 -13 -9 -34 -16 -46 -7 -12 -12 -31
-12 -42 0 -11 -9 -28 -19 -38 -10 -10 -21 -34 -24 -53 -13 -82 -37 -150 -60
-168 -8 -7 -18 -29 -22 -48 -3 -19 -13 -38 -21 -41 -20 -7 -47 -61 -40 -79 3
-8 2 -13 -3 -9 -5 3 -13 -9 -16 -27 -4 -18 -11 -38 -16 -44 -5 -5 -15 -39 -24
-75 l-15 -64 26 -21 c16 -13 41 -22 64 -22 35 -1 39 2 64 50 14 27 26 57 26
65 0 8 9 26 19 39 11 14 18 34 16 46 -3 13 4 27 19 39 16 13 25 32 29 64 3 28
13 55 26 69 18 19 20 28 12 48 -8 22 -6 27 14 38 26 14 51 71 41 95 -3 8 -1
15 3 15 5 0 12 7 15 16 3 8 2 12 -4 9 -6 -3 -10 -2 -10 3 0 6 7 12 15 16 8 3
15 12 15 21 0 22 27 73 55 103 l23 25 46 -27 c33 -19 67 -29 113 -33 38 -3 80
-14 98 -24 16 -11 46 -19 65 -19 20 0 46 -7 58 -16 22 -15 43 -14 88 3 11 4
15 3 11 -4 -9 -14 15 -23 42 -16 12 3 33 -2 48 -12 17 -12 52 -19 97 -22 66
-3 159 -13 163 -17 3 -3 12 -58 19 -114 4 -35 2 -58 -6 -67 -21 -25 -3 -80 36
-114 40 -36 43 -36 89 -17 30 13 35 20 36 48 2 138 7 226 14 241 4 10 2 23 -4
31 -15 18 -1 27 30 21 53 -11 158 -6 224 11 39 9 81 18 95 19 34 2 108 24 113
33 2 4 2 1 1 -5 -4 -16 6 -16 47 1 19 7 40 11 47 9 7 -3 37 3 68 13 41 13 53
21 49 32 -4 11 -2 12 7 4 17 -13 82 -5 133 17 l41 18 19 -26 c20 -26 22 -32
28 -88 2 -18 11 -41 19 -50 19 -21 51 -92 68 -148 7 -22 16 -44 21 -50 5 -5 9
-15 9 -22 0 -8 8 -25 17 -40 10 -14 16 -40 14 -58 -2 -24 4 -37 22 -51 32 -25
45 -51 50 -101 6 -51 21 -78 53 -99 21 -14 31 -15 64 -5 65 19 77 68 35 136
-13 22 -25 50 -25 62 0 33 -21 72 -41 78 -10 3 -21 16 -25 28 -4 12 -14 28
-23 34 -15 12 -15 13 0 8 24 -9 18 42 -8 69 -12 12 -25 35 -28 49 -4 15 -11
30 -16 33 -5 3 -9 21 -9 40 0 21 -16 66 -40 114 -23 43 -43 99 -46 124 -6 45
-6 46 23 46 19 0 38 9 53 25 13 14 32 25 43 25 19 0 88 45 95 62 2 4 10 8 17
8 7 0 15 4 17 9 2 5 37 25 78 44 41 20 90 49 109 66 19 17 40 31 46 31 6 0 31
18 55 40 24 22 48 40 52 40 4 0 19 18 33 40 14 22 33 40 41 40 9 0 27 12 39
26 l22 26 26 -32 c15 -17 27 -35 27 -40 0 -5 9 -12 20 -15 11 -4 28 -21 37
-38 9 -18 34 -49 57 -70 23 -21 61 -57 86 -81 25 -24 53 -47 62 -52 9 -5 28
-25 41 -44 13 -19 29 -34 35 -33 7 2 12 -1 12 -7 0 -5 9 -14 19 -20 28 -14 78
16 85 52 7 37 -31 117 -59 124 -11 3 -31 20 -45 39 -14 18 -37 41 -51 51 -14
9 -38 37 -53 61 -15 23 -32 43 -37 43 -12 0 -159 147 -159 159 0 5 8 12 18 15
21 7 75 113 65 129 -5 8 -2 8 8 0 13 -10 19 -8 37 17 12 16 22 34 22 40 0 6
15 20 34 31 24 14 40 35 56 75 13 30 35 65 51 77 16 12 30 32 32 45 2 12 17
37 34 55 36 38 63 88 63 117 0 12 9 29 21 38 11 10 21 24 23 32 7 44 18 60 42
60 34 0 112 -36 151 -71 20 -17 49 -30 77 -34 30 -5 47 -13 51 -24 6 -21 109
-65 130 -57 22 8 95 -22 128 -53 18 -17 37 -25 53 -23 15 2 36 -6 55 -23 28
-23 37 -25 78 -19 25 4 51 14 58 23 19 25 15 66 -9 88 -13 11 -35 34 -49 50
-32 35 -88 55 -114 40 -13 -7 -16 -6 -10 2 4 8 2 11 -6 10 -8 -2 -28 4 -45 14
-18 9 -51 20 -75 23 -24 4 -53 17 -66 30 -29 29 -49 39 -93 48 -19 3 -45 16
-57 28 -13 12 -35 24 -49 25 -44 6 -130 42 -148 62 -16 17 -16 22 -1 57 22 54
37 114 36 150 -1 19 6 37 18 48 14 13 19 27 16 52 -3 18 0 36 5 39 6 3 10 24
10 45 0 21 9 55 21 74 18 30 19 41 10 67 -8 22 -8 37 0 51 6 11 8 31 5 44 -4
14 0 37 9 54 16 31 23 90 12 107 -4 6 -1 24 5 41 13 35 37 42 143 42 33 1 76
1 95 2 19 1 46 -2 60 -6 14 -5 22 -5 18 -1 -5 5 4 28 18 52 l25 44 -34 34
c-22 22 -45 35 -60 35 -14 0 -33 3 -43 7 -13 5 -15 3 -9 -8 7 -11 6 -12 -6 -3
-8 6 -23 9 -34 6 -11 -2 -51 -7 -90 -9 -38 -3 -73 -9 -76 -14 -3 -6 -4 15 -1
46 3 38 1 55 -7 55 -7 0 -9 4 -6 10 3 5 2 10 -3 10 -8 0 -7 75 2 116 2 13 -5
36 -19 56 -15 21 -20 39 -15 48 4 7 4 25 -1 40 -6 16 -6 36 -1 51 11 27 -16
96 -35 92 -5 -1 -8 8 -6 21 5 22 -55 246 -82 313 -13 31 -13 32 18 39 18 4 48
9 67 10 19 1 38 3 41 3 4 1 29 16 55 34 27 18 62 34 79 36 16 2 36 12 43 22 9
13 24 19 45 18 53 -3 61 0 101 36 34 30 44 34 76 29 32 -5 40 -2 59 22 12 15
32 29 44 31 66 9 86 16 110 41 22 23 26 35 21 58 -7 38 -30 52 -94 59 -37 4
-60 0 -83 -12 -18 -9 -38 -16 -44 -15 -7 2 -29 -13 -48 -33 -23 -22 -45 -35
-62 -35 -14 0 -32 -8 -40 -18 -8 -9 -12 -11 -8 -4 7 14 -11 17 -20 2 -3 -5
-17 -10 -30 -10 -13 0 -32 -11 -43 -25 -11 -13 -22 -22 -25 -19 -3 3 -32 -6
-65 -21 -32 -14 -71 -28 -85 -29 -14 -2 -38 -11 -53 -20 -15 -10 -35 -15 -48
-12 -17 4 -26 -1 -40 -24 -29 -51 -56 -35 -56 34 0 22 -8 39 -24 53 -13 12
-29 38 -36 59 -7 22 -22 50 -34 64 -12 14 -32 50 -45 80 -13 30 -29 66 -36 80
-15 28 -65 60 -80 52 -5 -3 -7 -2 -3 2 12 14 -14 70 -43 96 -16 14 -31 35 -34
48 -4 23 -62 79 -77 75 -4 -2 -7 0 -7 5 3 19 -3 33 -25 56 -23 22 -23 24 -7
29 10 2 31 26 46 53 28 50 70 94 136 143 19 14 51 44 69 66 19 22 53 61 77 87
36 40 42 52 39 85 -4 60 -21 84 -54 77 -26 -6 -42 -20 -140 -132 -26 -30 -60
-60 -75 -68 -36 -19 -118 -104 -111 -115 3 -5 -2 -9 -10 -9 -8 0 -17 -8 -21
-17 -3 -10 -20 -27 -38 -38 -18 -11 -32 -28 -32 -37 0 -9 -4 -20 -8 -25 -5 -4
-7 -1 -5 7 2 9 -3 14 -12 12 -8 -2 -12 -1 -8 3 13 14 -45 80 -107 122 -35 24
-68 43 -73 43 -5 0 -22 15 -39 33 -46 49 -79 74 -163 126 -8 5 -34 15 -57 22
-23 6 -40 15 -38 19 2 4 -7 18 -20 30 -14 13 -25 21 -25 17 0 -10 -122 44
-145 63 -11 10 -27 20 -35 23 -9 3 -10 6 -2 6 6 1 12 13 12 28 0 14 16 59 36
99 31 63 34 75 23 96 -12 22 -11 22 6 8 17 -14 18 -13 12 2 -3 10 -1 20 5 24
7 5 8 2 4 -7 -4 -8 2 -3 13 10 19 20 25 46 24 88 -1 7 3 11 7 8 9 -6 58 101
66 146 4 19 15 42 25 52 11 10 19 25 20 35 1 45 10 85 23 105 12 18 12 30 1
70 -6 26 -14 50 -18 53 -14 14 -123 -68 -131 -99 -3 -13 -12 -40 -21 -60 -8
-20 -15 -39 -15 -42 1 -10 -32 -70 -48 -87 -10 -12 -13 -28 -8 -49 5 -25 2
-35 -14 -46 -11 -8 -20 -26 -20 -41 0 -15 -7 -36 -15 -46 -8 -11 -15 -32 -15
-48 0 -15 -5 -28 -11 -28 -6 0 -8 -9 -4 -20 4 -12 2 -20 -5 -20 -6 0 -8 5 -5
10 3 6 2 10 -3 10 -13 0 -30 -49 -31 -87 0 -17 -8 -46 -17 -65 -10 -18 -18
-37 -19 -43 0 -5 -7 -10 -15 -10 -8 0 -15 -7 -16 -15 -3 -43 -5 -50 -15 -50
-5 0 -8 4 -5 8 3 5 7 20 10 35 4 22 0 27 -27 33 -18 4 -34 8 -37 9 -3 1 -27
12 -55 24 -27 12 -65 23 -82 24 -18 1 -33 5 -33 10 0 10 -32 21 -112 40 -41 9
-66 11 -65 5 1 -6 -5 -13 -13 -15 -10 -3 -11 -2 -3 4 32 23 -41 40 -76 18 -9
-5 -12 -4 -7 3 11 18 -55 30 -164 28 -74 -2 -112 2 -128 11 -12 8 -27 11 -32
8 -5 -3 -6 7 -3 22 9 45 9 76 1 108 -5 17 -11 43 -14 60 -3 16 -7 31 -9 33 -2
2 3 21 10 43 13 36 13 39 -8 54 -26 18 -61 19 -102 1 -28 -12 -30 -16 -31 -72
-3 -131 -14 -277 -20 -283 -4 -3 -4 2 -1 12 5 13 1 17 -16 18 -12 1 -26 0 -32
-1 -5 -1 -30 -4 -55 -7 -25 -3 -52 -9 -61 -14 -9 -4 -61 -9 -115 -10 -81 -1
-110 -6 -158 -26 -45 -19 -70 -23 -98 -19 -30 5 -43 2 -60 -14 -12 -11 -38
-22 -57 -25 -67 -11 -76 -14 -97 -34 -12 -11 -42 -22 -66 -26 -44 -7 -45 -6
-61 28 -9 18 -14 44 -12 57 3 14 -5 35 -21 55 -14 18 -28 50 -31 72 -3 21 -12
45 -19 53 -11 13 -22 57 -27 105 0 6 -11 18 -25 29 -15 12 -22 26 -19 37 3 11
1 19 -5 19 -5 0 -7 4 -3 9 3 6 -1 13 -8 18 -21 12 -33 41 -47 106 -8 39 -15
55 -23 50 -8 -4 -8 -1 1 9 30 37 -29 102 -111 122 -25 6 -29 3 -43 -29z m2586
-159 c0 -3 -4 -8 -10 -11 -5 -3 -10 -1 -10 4 0 6 5 11 10 11 6 0 10 -2 10 -4z
m5 -206 c-3 -5 -11 -10 -16 -10 -6 0 -7 5 -4 10 3 6 11 10 16 10 6 0 7 -4 4
-10z m-40 -20 c3 -6 -1 -7 -9 -4 -18 7 -21 14 -7 14 6 0 13 -4 16 -10z m-1151
-106 c3 -8 2 -12 -4 -9 -6 3 -10 10 -10 16 0 14 7 11 14 -7z m106 -109 c0 -12
-19 -12 -23 0 -4 9 -1 12 9 8 7 -3 14 -7 14 -8z m-260 1 c0 -2 -7 -7 -16 -10
-8 -3 -12 -2 -9 4 6 10 25 14 25 6z m89 -29 c0 -9 -2 -8 -6 1 -2 6 -10 9 -15
6 -7 -4 -8 -2 -4 5 9 13 26 5 25 -12z m-189 -57 c0 -5 -5 -10 -11 -10 -5 0 -7
5 -4 10 3 6 8 10 11 10 2 0 4 -4 4 -10z m571 -13 c-10 -9 -11 -8 -5 6 3 10 9
15 12 12 3 -3 0 -11 -7 -18z m151 -4 c-6 -2 -9 -10 -6 -15 4 -7 2 -8 -5 -4
-13 9 -5 26 12 25 9 0 8 -2 -1 -6z m-205 -9 c-3 -3 -12 -4 -19 -1 -8 3 -5 6 6
6 11 1 17 -2 13 -5z m-47 -10 c0 -8 -19 -13 -24 -6 -3 5 1 9 9 9 8 0 15 -2 15
-3z m158 -7 c8 -10 6 -13 -9 -14 -10 -1 -19 5 -19 13 0 17 14 18 28 1z m125
-12 c-3 -9 -8 -14 -10 -11 -3 3 -2 9 2 15 9 16 15 13 8 -4z m-633 -3 c0 -5 -7
-9 -15 -9 -8 0 -12 4 -9 9 3 4 9 8 15 8 5 0 9 -4 9 -8z m106 -26 c2 -12 -1
-13 -17 -3 -11 7 -15 13 -9 15 6 2 7 9 4 15 -5 8 -2 8 6 0 8 -7 15 -19 16 -27z
m252 7 c-2 -10 2 -17 9 -16 7 2 10 -4 6 -12 -5 -14 -7 -13 -18 2 -7 9 -11 23
-8 30 7 19 14 16 11 -4z m-41 -8 c0 -8 -4 -12 -9 -9 -5 3 -6 10 -3 15 9 13 12
11 12 -6z m-957 -40 c-6 -8 -8 -20 -4 -27 5 -10 4 -10 -6 -1 -11 10 -11 15 0
28 7 8 15 15 17 15 3 0 0 -7 -7 -15z m1635 -13 c-3 -3 -11 0 -18 7 -9 10 -8
11 6 5 10 -3 15 -9 12 -12z m-463 -10 c-7 -2 -9 -9 -5 -15 3 -7 2 -8 -2 -4
-16 14 -14 36 3 29 10 -4 12 -7 4 -10z m280 -1 c-4 -10 -7 -11 -10 -3 -2 7 -9
9 -14 6 -6 -4 -8 -3 -5 3 10 16 36 11 29 -6z m408 -10 c-1 -14 -2 -14 -11 2
-6 9 -15 14 -21 11 -7 -4 -8 -2 -4 4 9 16 36 3 36 -17z m-1299 -4 c-10 -9 -11
-8 -5 6 3 10 9 15 12 12 3 -3 0 -11 -7 -18z m-181 3 c0 -5 -2 -10 -4 -10 -3 0
-8 5 -11 10 -3 6 -1 10 4 10 6 0 11 -4 11 -10z m1260 6 c0 -3 -4 -8 -10 -11
-5 -3 -10 -1 -10 4 0 6 5 11 10 11 6 0 10 -2 10 -4z m-1440 -20 c0 -2 -7 -7
-16 -10 -8 -3 -12 -2 -9 4 6 10 25 14 25 6z m325 -6 c3 -6 -1 -7 -9 -4 -18 7
-21 14 -7 14 6 0 13 -4 16 -10z m1075 -5 c0 -9 -6 -12 -15 -9 -8 4 -12 10 -9
15 8 14 24 10 24 -6z m80 9 c0 -8 -19 -13 -24 -6 -3 5 1 9 9 9 8 0 15 -2 15
-3z m-1128 -26 c-7 -7 -12 -8 -12 -2 0 14 12 26 19 19 2 -3 -1 -11 -7 -17z
m432 6 c3 -8 2 -12 -4 -9 -6 3 -10 10 -10 16 0 14 7 11 14 -7z m728 9 c-6 -2
-9 -10 -6 -15 4 -7 2 -8 -5 -4 -13 9 -5 26 12 25 9 0 8 -2 -1 -6z m-1945 -9
c-3 -3 -12 -4 -19 -1 -8 3 -5 6 6 6 11 1 17 -2 13 -5z m1277 -15 c-3 -5 -10
-7 -15 -3 -5 3 -7 10 -3 15 3 5 10 7 15 3 5 -3 7 -10 3 -15z m-146 -14 c-3 -3
-9 2 -12 12 -6 14 -5 15 5 6 7 -7 10 -15 7 -18z m349 10 c0 -8 -4 -12 -9 -9
-5 3 -6 10 -3 15 9 13 12 11 12 -6z m188 5 c-3 -5 -12 -10 -18 -10 -7 0 -6 4
3 10 19 12 23 12 15 0z m-979 -32 c3 -4 -1 -5 -10 -4 -8 1 -18 5 -22 8 -3 4 1
5 10 4 8 -1 18 -5 22 -8z m458 0 c-5 -7 -2 -9 9 -5 9 3 21 -1 29 -11 11 -15
11 -15 -3 -5 -9 7 -19 10 -22 7 -9 -9 -28 6 -22 17 4 5 8 9 11 9 3 0 2 -5 -2
-12z m-354 -2 c0 -3 -4 -8 -10 -11 -5 -3 -10 -1 -10 4 0 6 5 11 10 11 6 0 10
-2 10 -4z m656 -18 c4 -7 3 -8 -4 -4 -7 4 -12 2 -12 -5 0 -7 -3 -10 -6 -6 -6
5 3 27 11 27 2 0 7 -5 11 -12z m216 5 c-10 -4 -10 -8 0 -21 12 -15 11 -16 -4
-3 -19 14 -15 32 5 30 8 0 8 -2 -1 -6z m365 -8 c0 -8 -4 -12 -9 -9 -5 3 -6 10
-3 15 9 13 12 11 12 -6z m-407 -10 c-7 -8 -17 -15 -23 -15 -6 0 -2 7 9 15 25
19 30 19 14 0z m440 0 c-7 -9 -15 -13 -19 -10 -3 3 1 10 9 15 21 14 24 12 10
-5z m-2350 -17 c-11 -12 -20 -28 -20 -35 0 -7 -7 -13 -15 -13 -13 0 -13 2 0
18 8 9 15 21 14 26 0 5 5 13 13 17 24 16 29 9 8 -13z m400 12 c0 -5 -2 -10 -4
-10 -3 0 -8 5 -11 10 -3 6 -1 10 4 10 6 0 11 -4 11 -10z m360 6 c0 -3 -4 -8
-10 -11 -5 -3 -10 -1 -10 4 0 6 5 11 10 11 6 0 10 -2 10 -4z m27 -57 c-7 -22
-15 -40 -19 -40 -12 1 -12 4 2 44 19 50 32 47 17 -4z m653 37 c0 -3 -4 -8 -10
-11 -5 -3 -10 -1 -10 4 0 6 5 11 10 11 6 0 10 -2 10 -4z m360 0 c0 -2 -7 -7
-16 -10 -8 -3 -12 -2 -9 4 6 10 25 14 25 6z m565 -6 c-3 -5 -12 -10 -18 -10
-7 0 -6 4 3 10 19 12 23 12 15 0z m-38 -13 c0 -7 -9 -13 -19 -13 -21 0 -24 12
-5 19 20 9 24 8 24 -6z m-47 -7 c0 -5 -5 -10 -11 -10 -5 0 -7 5 -4 10 3 6 8
10 11 10 2 0 4 -4 4 -10z m-1970 -20 c-8 -5 -17 -7 -19 -4 -3 3 1 9 9 14 8 5
17 7 19 4 3 -3 -1 -9 -9 -14z m1405 11 c3 -5 2 -12 -3 -15 -5 -3 -9 1 -9 9 0
17 3 19 12 6z m280 -11 c3 -5 -1 -10 -10 -10 -9 0 -13 5 -10 10 3 6 8 10 10
10 2 0 7 -4 10 -10z m406 -13 c-10 -9 -11 -8 -5 6 3 10 9 15 12 12 3 -3 0 -11
-7 -18z m-756 4 c3 -5 0 -13 -6 -17 -7 -4 -9 -3 -5 4 3 6 -2 13 -11 15 -16 4
-16 5 -1 6 9 0 19 -3 23 -8z m1015 5 c0 -3 -4 -8 -10 -11 -5 -3 -10 -1 -10 4
0 6 5 11 10 11 6 0 10 -2 10 -4z m-3520 -41 c-5 -7 -7 -15 -3 -18 3 -4 1 -7
-5 -7 -7 0 -12 5 -12 11 0 5 -6 7 -12 3 -10 -6 -10 -5 -1 7 7 9 19 16 28 16
10 0 12 -4 5 -12z m1383 -6 c-3 -10 -11 -19 -19 -19 -19 0 -13 36 7 37 12 1
15 -4 12 -18z m1257 5 c0 -8 -5 -12 -10 -9 -6 4 -8 11 -5 16 9 14 15 11 15 -7z
m465 -5 c-4 -5 -12 -9 -18 -8 -9 0 -8 2 1 6 6 2 9 10 6 15 -4 7 -2 8 5 4 6 -4
9 -12 6 -17z m77 -4 c0 -5 -5 -11 -11 -13 -6 -2 -11 4 -11 13 0 9 5 15 11 13
6 -2 11 -8 11 -13z m-986 -10 c-1 -8 -6 -18 -11 -22 -4 -4 -5 -2 -1 5 4 7 2
12 -6 12 -9 0 -9 3 2 10 19 12 19 13 16 -5z m-661 -4 c3 -5 1 -12 -5 -16 -5
-3 -10 1 -10 9 0 18 6 21 15 7z m480 -11 c4 -6 12 -7 18 -4 7 4 8 3 4 -2 -10
-10 -57 -14 -57 -4 0 19 25 26 35 10z m1560 -20 c3 -5 1 -10 -4 -10 -6 0 -11
5 -11 10 0 6 2 10 4 10 3 0 8 -4 11 -10z m665 -2 c0 -4 -9 -8 -21 -8 -11 0
-18 4 -15 8 3 5 12 9 21 9 8 0 15 -4 15 -9z m-1513 -11 c0 -8 -6 -14 -14 -14
-9 0 -10 4 -2 14 6 7 12 13 14 13 1 0 2 -6 2 -13z m821 -12 c-3 -3 -9 2 -12
12 -6 14 -5 15 5 6 7 -7 10 -15 7 -18z m-75 0 c-3 -9 -8 -14 -10 -11 -3 3 -2
9 2 15 9 16 15 13 8 -4z m-448 -15 c3 -5 1 -10 -4 -10 -6 0 -11 5 -11 10 0 6
2 10 4 10 3 0 8 -4 11 -10z m155 0 c0 -5 -7 -10 -15 -10 -8 0 -15 5 -15 10 0
6 7 10 15 10 8 0 15 -4 15 -10z m52 -17 c-6 -2 -10 -9 -7 -14 4 -5 -1 -6 -10
-2 -10 3 -21 0 -26 -8 -7 -11 -9 -11 -9 -1 0 7 -5 10 -12 6 -7 -4 -8 -3 -4 5
4 6 10 10 14 7 4 -2 16 0 27 5 11 4 25 8 30 8 6 -1 4 -3 -3 -6z m-937 -15 c5
4 5 1 1 -6 -6 -10 -11 -10 -22 -1 -8 6 -14 14 -14 16 0 3 6 0 13 -6 8 -6 18
-7 22 -3z m335 -8 c-8 -5 -19 -10 -25 -10 -5 0 -3 5 5 10 8 5 20 10 25 10 6 0
3 -5 -5 -10z m510 -5 c0 -12 -19 -12 -23 0 -4 9 -1 12 9 8 7 -3 14 -7 14 -8z
m400 11 c0 -3 -4 -8 -10 -11 -5 -3 -10 -1 -10 4 0 6 5 11 10 11 6 0 10 -2 10
-4z m-954 -33 c-2 -9 -8 -19 -15 -21 -10 -3 -10 0 -2 16 6 10 7 23 3 27 -4 5
-2 5 5 2 6 -4 10 -15 9 -24z m255 4 c-10 -9 -11 -8 -5 6 3 10 9 15 12 12 3 -3
0 -11 -7 -18z m-565 1 c3 -4 -1 -5 -10 -4 -8 1 -18 5 -22 8 -3 4 1 5 10 4 8
-1 18 -5 22 -8z m69 -10 c6 -4 2 -8 -7 -8 -10 0 -18 7 -18 17 0 9 3 12 8 7 4
-5 12 -12 17 -16z m-1910 3 c3 -5 2 -12 -3 -15 -5 -3 -9 1 -9 9 0 17 3 19 12
6z m806 -8 c13 -16 12 -17 -3 -4 -10 7 -18 15 -18 17 0 8 8 3 21 -13z m389 -3
c0 -5 -2 -10 -4 -10 -3 0 -8 5 -11 10 -3 6 -1 10 4 10 6 0 11 -4 11 -10z m917
-33 c2 -17 1 -19 -7 -7 -11 17 -14 47 -3 36 4 -3 8 -17 10 -29z m-1829 -26
c-1 -16 -6 -27 -11 -24 -4 3 -6 11 -3 19 3 8 0 11 -10 7 -10 -4 -12 0 -8 11
11 28 35 19 32 -13z m862 3 c0 -8 -5 -12 -10 -9 -6 4 -8 11 -5 16 9 14 15 11
15 -7z m1876 -7 c4 -4 0 -7 -9 -7 -9 0 -18 4 -21 9 -7 10 20 9 30 -2z m-2439
-3 c-3 -3 -12 -4 -19 -1 -8 3 -5 6 6 6 11 1 17 -2 13 -5z m994 -6 c1 -7 1 -17
0 -21 -2 -9 49 -52 60 -52 4 0 10 -3 14 -7 4 -3 0 -5 -9 -4 -9 1 -32 16 -51
33 -19 17 -35 29 -35 26 0 -3 -7 0 -15 7 -18 15 -20 -1 -3 -18 7 -7 8 -12 4
-12 -5 0 -2 -8 5 -17 8 -9 9 -14 2 -10 -6 4 -13 3 -15 -3 -2 -6 -9 -6 -18 0
-13 8 -12 12 5 25 11 9 14 13 6 9 -9 -4 -12 -3 -7 4 3 6 1 14 -5 18 -7 4 -9 3
-6 -3 4 -6 -2 -18 -12 -27 -18 -17 -20 -17 -31 4 -10 18 -9 21 1 15 7 -5 17
-2 23 7 15 19 44 29 51 17 4 -5 11 -6 17 -3 6 4 5 10 -3 15 -11 7 -10 9 4 9 9
0 18 -6 18 -12z m-1186 -8 c3 -5 1 -10 -4 -10 -6 0 -11 5 -11 10 0 6 2 10 4
10 3 0 8 -4 11 -10z m55 -15 c14 -19 14 -19 -2 -6 -10 7 -18 18 -18 24 0 6 1
8 3 6 1 -2 9 -13 17 -24z m938 5 c-7 -10 -14 -17 -17 -15 -4 4 18 35 25 35 2
0 -1 -9 -8 -20z m2182 1 c0 -6 -4 -12 -8 -15 -5 -3 -9 1 -9 9 0 8 4 15 9 15 4
0 8 -4 8 -9z m-1020 -11 c0 -5 -5 -10 -11 -10 -5 0 -7 5 -4 10 3 6 8 10 11 10
2 0 4 -4 4 -10z m-1660 -40 c0 -5 -5 -10 -11 -10 -5 0 -7 5 -4 10 3 6 8 10 11
10 2 0 4 -4 4 -10z m795 0 c3 -5 2 -10 -4 -10 -5 0 -13 5 -16 10 -3 6 -2 10 4
10 5 0 13 -4 16 -10z m39 2 c3 -5 -1 -9 -9 -9 -8 0 -12 4 -9 9 3 4 7 8 9 8 2
0 6 -4 9 -8z m486 -2 c0 -5 -4 -10 -10 -10 -5 0 -10 5 -10 10 0 6 5 10 10 10
6 0 10 -4 10 -10z m-586 -25 c11 -8 16 -15 10 -15 -5 0 -18 7 -28 15 -11 8
-16 15 -10 15 5 0 18 -7 28 -15z m526 5 c0 -5 -5 -10 -11 -10 -5 0 -7 5 -4 10
3 6 8 10 11 10 2 0 4 -4 4 -10z m35 0 c3 -5 1 -10 -4 -10 -6 0 -11 5 -11 10 0
6 2 10 4 10 3 0 8 -4 11 -10z m-616 -13 c8 -10 7 -14 -2 -14 -8 0 -14 6 -14
14 0 7 1 13 2 13 2 0 8 -6 14 -13z m42 -14 c8 -9 9 -14 2 -10 -6 4 -13 1 -16
-5 -3 -7 -4 -3 -4 10 1 26 1 26 18 5z m439 13 c0 -2 -7 -9 -15 -16 -13 -11
-14 -10 -9 4 5 14 24 23 24 12z m1300 -6 c-8 -5 -19 -10 -25 -10 -5 0 -3 5 5
10 8 5 20 10 25 10 6 0 3 -5 -5 -10z m-863 -25 c0 -8 -4 -12 -9 -9 -4 3 -8 9
-8 15 0 5 4 9 8 9 5 0 9 -7 9 -15z m-964 -10 c-3 -9 -8 -14 -10 -11 -3 3 -2 9
2 15 9 16 15 13 8 -4z m57 -16 c0 -4 -6 -9 -13 -12 -8 -3 -14 0 -14 7 0 7 6
13 14 13 7 0 13 -4 13 -8z m1410 7 c0 -3 -4 -8 -10 -11 -5 -3 -10 -1 -10 4 0
6 5 11 10 11 6 0 10 -2 10 -4z m-1490 -16 c8 -5 11 -10 5 -10 -5 0 -17 5 -25
10 -8 5 -10 10 -5 10 6 0 17 -5 25 -10z m576 -42 c-10 -6 -22 -6 -26 -2 -5 5
3 10 18 11 22 1 24 0 8 -9z m-76 -19 c0 -6 -4 -7 -10 -4 -5 3 -10 11 -10 16 0
6 5 7 10 4 6 -3 10 -11 10 -16z m-1830 -21 c0 -14 -17 -8 -35 12 -17 19 -17
19 9 7 14 -7 26 -15 26 -19z m917 17 c0 -8 -4 -12 -9 -9 -5 3 -6 10 -3 15 9
13 12 11 12 -6z m983 -11 c0 -2 -9 0 -20 6 -11 6 -20 13 -20 16 0 2 9 0 20 -6
11 -6 20 -13 20 -16z m-485 -11 c-2 -10 -4 -20 -4 -23 -1 -3 -5 2 -11 10 -6 9
-5 17 3 22 16 10 16 10 12 -9z m675 -7 c0 -3 -4 -8 -10 -11 -5 -3 -10 -1 -10
4 0 6 5 11 10 11 6 0 10 -2 10 -4z m1110 -6 c0 -5 -5 -10 -11 -10 -5 0 -7 5
-4 10 3 6 8 10 11 10 2 0 4 -4 4 -10z m-3675 -16 c-9 -9 -19 -13 -23 -10 -3 4
0 11 8 16 24 15 33 11 15 -6z m229 1 c-4 -8 -10 -15 -15 -15 -4 0 -6 7 -3 15
4 8 10 15 15 15 4 0 6 -7 3 -15z m-287 -9 c0 -8 -12 -16 -26 -19 l-25 -5 25
19 c13 10 24 19 25 19 0 0 1 -6 1 -14z m2313 4 c0 -5 -5 -10 -11 -10 -5 0 -7
5 -4 10 3 6 8 10 11 10 2 0 4 -4 4 -10z m471 -13 c-10 -9 -11 -8 -5 6 3 10 9
15 12 12 3 -3 0 -11 -7 -18z m290 -4 c-12 -20 -14 -14 -5 12 4 9 9 14 11 11 3
-2 0 -13 -6 -23z m-1201 13 c0 -2 -7 -9 -15 -16 -13 -11 -14 -10 -9 4 5 14 24
23 24 12z m888 -41 c-3 -3 -9 2 -12 12 -6 14 -5 15 5 6 7 -7 10 -15 7 -18z
m1079 14 c-9 -6 -15 -14 -12 -20 4 -5 1 -9 -4 -9 -6 0 -11 4 -11 8 0 12 22 32
35 32 5 0 2 -5 -8 -11z m-2867 -3 c0 -3 -4 -8 -10 -11 -5 -3 -10 -1 -10 4 0 6
5 11 10 11 6 0 10 -2 10 -4z m1590 0 c0 -2 -8 -10 -17 -17 -16 -13 -17 -12 -4
4 13 16 21 21 21 13z m1090 0 c0 -2 -7 -6 -15 -10 -8 -3 -15 -1 -15 4 0 6 7
10 15 10 8 0 15 -2 15 -4z m-3500 -37 c-7 -11 -14 -18 -17 -15 -3 3 0 12 7 21
18 21 23 19 10 -6z m3780 11 c0 -5 -2 -10 -4 -10 -3 0 -8 5 -11 10 -3 6 -1 10
4 10 6 0 11 -4 11 -10z m-3943 -25 c0 -17 -6 -18 -26 -6 -16 11 -6 32 13 25 7
-3 13 -11 13 -19z m1200 10 c0 -8 -4 -12 -9 -9 -5 3 -6 10 -3 15 9 13 12 11
12 -6z m34 -12 c13 -16 12 -17 -3 -4 -10 7 -18 15 -18 17 0 8 8 3 21 -13z
m1205 -29 c1 -9 0 -13 -4 -10 -3 4 -7 14 -8 22 -1 9 0 13 4 10 3 -4 7 -14 8
-22z m-1302 1 c-4 -8 -11 -12 -16 -9 -6 4 -5 10 3 15 19 12 19 11 13 -6z m194
-10 c-3 -3 -9 2 -12 12 -6 14 -5 15 5 6 7 -7 10 -15 7 -18z m34 -2 c-10 -4
-10 -8 0 -21 11 -15 11 -15 -3 -5 -9 7 -20 9 -25 5 -5 -4 0 3 10 16 11 12 22
19 25 16 3 -4 0 -9 -7 -11z m845 2 c0 -8 -4 -15 -9 -15 -10 0 -11 14 -1 23 9
10 10 9 10 -8z m1493 7 c0 -5 -7 -17 -15 -28 -14 -18 -14 -17 -4 9 12 27 19
34 19 19z m347 -12 c1 -11 -2 -20 -8 -20 -10 0 -12 23 -2 33 9 9 9 10 10 -13z
m-3981 -2 c4 -7 3 -8 -4 -4 -7 4 -12 2 -12 -5 0 -7 -3 -10 -6 -6 -6 5 3 27 11
27 2 0 7 -5 11 -12z m2488 -10 c-3 -4 -11 -5 -19 -1 -21 7 -19 12 4 10 11 0
18 -5 15 -9z m1611 2 c3 -6 -1 -7 -9 -4 -18 7 -21 14 -7 14 6 0 13 -4 16 -10z
m-2137 -25 c-3 -3 -9 2 -12 12 -6 14 -5 15 5 6 7 -7 10 -15 7 -18z m1993 -3
c-6 -2 -9 -8 -5 -13 3 -5 1 -9 -5 -9 -12 0 -20 21 -13 38 3 10 7 10 19 0 10
-8 11 -14 4 -16z m-361 14 c0 -9 -30 -14 -35 -6 -4 6 3 10 14 10 12 0 21 -2
21 -4z m-1123 -21 c0 -8 -4 -12 -9 -9 -5 3 -6 10 -3 15 9 13 12 11 12 -6z
m-2513 -3 c3 -5 -1 -9 -9 -9 -8 0 -12 4 -9 9 3 4 7 8 9 8 2 0 6 -4 9 -8z
m2329 -22 c3 -11 1 -20 -4 -20 -5 0 -9 9 -9 20 0 11 2 20 4 20 2 0 6 -9 9 -20z
m867 1 c0 -6 -4 -12 -8 -15 -5 -3 -9 1 -9 9 0 8 4 15 9 15 4 0 8 -4 8 -9z
m-3183 -16 c0 -8 -4 -12 -9 -9 -5 3 -6 10 -3 15 9 13 12 11 12 -6z m3788 5 c3
-6 -1 -7 -9 -4 -18 7 -21 14 -7 14 6 0 13 -4 16 -10z m-3811 -16 c3 -8 2 -12
-4 -9 -6 3 -10 10 -10 16 0 14 7 11 14 -7z m2456 12 c0 -2 -7 -7 -16 -10 -8
-3 -12 -2 -9 4 6 10 25 14 25 6z m-2585 -15 c3 -5 2 -12 -3 -15 -5 -3 -9 1 -9
9 0 17 3 19 12 6z m2075 -1 c0 -5 -5 -10 -11 -10 -5 0 -7 5 -4 10 3 6 8 10 11
10 2 0 4 -4 4 -10z m375 -10 c3 -5 1 -10 -4 -10 -6 0 -11 5 -11 10 0 6 2 10 4
10 3 0 8 -4 11 -10z m525 -10 c0 -5 -8 -10 -17 -10 -15 0 -16 2 -3 10 19 12
20 12 20 0z m410 5 c0 -2 -6 -8 -13 -14 -10 -8 -14 -7 -14 2 0 8 6 14 14 14 7
0 13 -1 13 -2z m270 -17 c0 -5 4 -7 8 -4 5 3 9 -1 9 -9 0 -22 -13 -18 -31 10
-14 21 -14 24 -1 19 8 -4 15 -10 15 -16z m-1580 8 c0 -3 -4 -8 -10 -11 -5 -3
-10 -1 -10 4 0 6 5 11 10 11 6 0 10 -2 10 -4z m240 -6 c0 -5 -5 -10 -11 -10
-5 0 -7 5 -4 10 3 6 8 10 11 10 2 0 4 -4 4 -10z m-885 -9 c3 -5 2 -12 -3 -15
-5 -3 -9 1 -9 9 0 17 3 19 12 6z m1042 3 c-3 -3 -12 -4 -19 -1 -8 3 -5 6 6 6
11 1 17 -2 13 -5z m-477 -24 c0 -5 -8 -10 -17 -10 -15 0 -16 2 -3 10 19 12 20
12 20 0z m-2966 -8 c3 -5 -1 -9 -9 -9 -8 0 -12 4 -9 9 3 4 7 8 9 8 2 0 6 -4 9
-8z m2176 -6 c0 -2 -7 -9 -15 -16 -12 -10 -15 -10 -15 4 0 9 7 16 15 16 8 0
15 -2 15 -4z m-1074 -18 c4 -7 3 -8 -4 -4 -7 4 -12 2 -12 -5 0 -7 -3 -10 -6
-6 -6 5 3 27 11 27 2 0 7 -5 11 -12z m638 -21 c-4 -13 -9 -14 -19 -4 -9 9 -10
16 -2 25 13 16 30 1 21 -21z m3026 24 c0 -5 -7 -12 -16 -15 -14 -5 -15 -4 -4
9 14 17 20 19 20 6z m40 1 c0 -5 -7 -9 -15 -9 -8 0 -12 4 -9 9 3 4 9 8 15 8 5
0 9 -4 9 -8z m-3746 -20 c2 -4 -5 -9 -17 -9 -17 -2 -19 0 -7 7 18 12 18 12 24
2z m4371 -2 c-3 -5 -12 -10 -18 -10 -7 0 -6 4 3 10 19 12 23 12 15 0z m-4437
-25 c-3 -3 -9 2 -12 12 -6 14 -5 15 5 6 7 -7 10 -15 7 -18z m3050 0 c-3 -3 -9
2 -12 12 -6 14 -5 15 5 6 7 -7 10 -15 7 -18z m345 10 c-3 -9 -8 -14 -10 -11
-3 3 -2 9 2 15 9 16 15 13 8 -4z m1732 5 c3 -5 1 -10 -4 -10 -6 0 -11 5 -11
10 0 6 2 10 4 10 3 0 8 -4 11 -10z m-1774 -33 c-10 -9 -11 -8 -5 6 3 10 9 15
12 12 3 -3 0 -11 -7 -18z m194 13 c3 -6 -1 -7 -9 -4 -18 7 -21 14 -7 14 6 0
13 -4 16 -10z m65 -4 c0 -3 -4 -8 -10 -11 -5 -3 -10 -1 -10 4 0 6 5 11 10 11
6 0 10 -2 10 -4z m193 -11 c-3 -9 -8 -14 -10 -11 -3 3 -2 9 2 15 9 16 15 13 8
-4z m-1299 -4 c4 -5 -3 -7 -14 -4 -23 6 -26 13 -6 13 8 0 17 -4 20 -9z m90 -7
c3 -8 2 -12 -4 -9 -6 3 -10 10 -10 16 0 14 7 11 14 -7z m1051 7 c3 -5 0 -13
-6 -17 -7 -4 -9 -3 -5 4 3 5 0 13 -6 15 -9 4 -10 6 -1 6 6 1 14 -3 18 -8z
m355 -5 c-7 -7 -13 -7 -20 0 -6 6 -3 10 10 10 13 0 16 -4 10 -10z m-2900 0 c0
-2 -7 -7 -16 -10 -8 -3 -12 -2 -9 4 6 10 25 14 25 6z m1070 -6 c0 -5 -5 -10
-11 -10 -5 0 -7 5 -4 10 3 6 8 10 11 10 2 0 4 -4 4 -10z m665 0 c-3 -5 -10
-10 -16 -10 -5 0 -9 5 -9 10 0 6 7 10 16 10 8 0 12 -4 9 -10z m125 0 c0 -5 -2
-10 -4 -10 -3 0 -8 5 -11 10 -3 6 -1 10 4 10 6 0 11 -4 11 -10z m-3733 -22
c-3 -8 -6 -5 -6 6 -1 11 2 17 5 13 3 -3 4 -12 1 -19z m873 -20 c10 -22 10 -22
-4 -4 -8 10 -20 15 -27 10 -8 -4 -10 -3 -5 4 11 18 24 14 36 -10z m4901 3 c-7
-5 -10 -14 -7 -20 4 -6 0 -11 -8 -11 -9 0 -16 -5 -16 -12 0 -6 -3 -9 -6 -5 -3
3 4 20 16 37 12 17 25 28 28 25 4 -3 0 -10 -7 -14z m-1623 -16 c-3 -3 -9 2
-12 12 -6 14 -5 15 5 6 7 -7 10 -15 7 -18z m226 9 c3 -8 2 -12 -4 -9 -6 3 -10
10 -10 16 0 14 7 11 14 -7z m171 6 c3 -6 -1 -7 -9 -4 -18 7 -21 14 -7 14 6 0
13 -4 16 -10z m286 -33 c-10 -9 -11 -8 -5 6 3 10 9 15 12 12 3 -3 0 -11 -7
-18z m-1171 -9 c0 -6 -7 -4 -16 3 -15 12 -16 11 -9 -11 6 -20 5 -23 -5 -13
-17 16 -5 44 15 37 8 -3 15 -11 15 -16z m395 -16 c-3 -3 -11 0 -18 7 -9 10 -8
11 6 5 10 -3 15 -9 12 -12z m-3040 -2 c-3 -5 -12 -7 -20 -3 -21 7 -19 13 6 13
11 0 18 -4 14 -10z m2665 0 c0 -5 -5 -10 -11 -10 -5 0 -7 5 -4 10 3 6 8 10 11
10 2 0 4 -4 4 -10z m827 -22 c-3 -8 -6 -5 -6 6 -1 11 2 17 5 13 3 -3 4 -12 1
-19z m313 18 c0 -2 -6 -9 -14 -15 -11 -9 -16 -9 -22 0 -4 8 -3 9 4 5 7 -4 12
-2 12 3 0 6 5 11 10 11 6 0 10 -2 10 -4z m118 -21 c-3 -3 -9 2 -12 12 -6 14
-5 15 5 6 7 -7 10 -15 7 -18z m-2138 5 c0 -5 -2 -10 -4 -10 -3 0 -8 5 -11 10
-3 6 -1 10 4 10 6 0 11 -4 11 -10z m94 -25 c3 -8 1 -15 -4 -15 -6 0 -10 7 -10
15 0 8 2 15 4 15 2 0 6 -7 10 -15z m1489 -5 c-3 -12 -8 -19 -11 -16 -5 6 5 36
12 36 2 0 2 -9 -1 -20z m-2713 -10 c0 -5 -2 -10 -4 -10 -3 0 -8 5 -11 10 -3 6
-1 10 4 10 6 0 11 -4 11 -10z m3800 -10 c0 -5 -5 -10 -11 -10 -5 0 -7 5 -4 10
3 6 8 10 11 10 2 0 4 -4 4 -10z m-4510 -30 c0 -5 -5 -10 -11 -10 -5 0 -7 5 -4
10 3 6 8 10 11 10 2 0 4 -4 4 -10z m3333 -13 c20 18 15 1 -7 -23 -10 -11 -46
11 -46 29 0 5 7 1 16 -8 15 -15 18 -15 37 2z m-2363 -21 c0 -3 -4 -8 -10 -11
-5 -3 -10 -1 -10 4 0 6 5 11 10 11 6 0 10 -2 10 -4z m2550 -31 c0 -5 -5 -3
-10 5 -5 8 -10 20 -10 25 0 6 5 3 10 -5 5 -8 10 -19 10 -25z m-3950 9 c0 -8
-19 -13 -24 -6 -3 5 1 9 9 9 8 0 15 -2 15 -3z m3760 -14 c-6 -11 -13 -20 -16
-20 -2 0 0 9 6 20 6 11 13 20 16 20 2 0 0 -9 -6 -20z m-33 -12 c-3 -8 -6 -5
-6 6 -1 11 2 17 5 13 3 -3 4 -12 1 -19z m97 -8 c-6 -6 -10 -3 -10 10 0 13 4
16 10 10 7 -7 7 -13 0 -20z m66 10 c0 -5 -2 -10 -4 -10 -3 0 -8 5 -11 10 -3 6
-1 10 4 10 6 0 11 -4 11 -10z m-465 -10 c3 -5 1 -10 -4 -10 -6 0 -11 5 -11 10
0 6 2 10 4 10 3 0 8 -4 11 -10z m1095 6 c0 -3 -4 -8 -10 -11 -5 -3 -10 -1 -10
4 0 6 5 11 10 11 6 0 10 -2 10 -4z m-1600 -12 c0 -8 -19 -13 -24 -6 -3 5 1 9
9 9 8 0 15 -2 15 -3z m816 -29 c-3 -8 -1 -15 5 -15 6 0 7 -4 4 -10 -3 -5 -14
-10 -23 -10 -13 0 -14 2 -4 9 8 4 13 11 13 15 -2 16 0 26 5 26 3 0 4 -7 0 -15z
m108 4 c-2 -4 -22 -7 -43 -6 -51 2 -44 14 8 14 22 0 38 -4 35 -8z m340 -27 c3
-5 -1 -9 -9 -9 -8 0 -12 4 -9 9 3 4 7 8 9 8 2 0 6 -4 9 -8z m506 -7 c0 -2 -7
-5 -15 -9 -9 -3 -15 0 -15 9 0 9 6 12 15 9 8 -4 15 -7 15 -9z m-4588 -32 c-6
-2 -10 -8 -8 -12 3 -4 -1 -8 -9 -8 -8 0 -15 4 -15 8 0 8 19 17 35 17 6 0 4 -2
-3 -5z m3908 -33 c0 -5 -4 -10 -10 -10 -5 0 -10 5 -10 10 0 6 5 10 10 10 6 0
10 -4 10 -10z m868 -29 c3 -10 0 -10 -16 -2 -10 6 -23 7 -27 3 -5 -4 -5 -2 -2
5 9 14 40 10 45 -6z m-698 -31 c0 -5 -2 -10 -4 -10 -3 0 -8 5 -11 10 -3 6 -1
10 4 10 6 0 11 -4 11 -10z m-4208 -53 c-6 -7 -23 -14 -38 -15 -27 -2 -27 -2 7
21 33 23 51 19 31 -6z m3948 19 c0 -2 -8 -10 -17 -17 -16 -13 -17 -12 -4 4 13
16 21 21 21 13z m136 -8 c5 4 5 3 1 -3 -5 -5 -10 -8 -11 -5 -2 3 -11 -2 -21
-10 -11 -9 -16 -10 -11 -2 5 8 1 12 -11 13 -16 0 -16 1 2 8 11 5 25 5 31 0 6
-5 15 -5 20 -1z m-4051 -38 c-3 -4 0 -11 5 -13 6 -3 5 -4 -1 -3 -7 1 -13 10
-15 19 -1 9 2 15 7 11 5 -3 7 -9 4 -14z m3969 -6 c3 -8 2 -12 -4 -9 -6 3 -10
10 -10 16 0 14 7 11 14 -7z m-61 -11 c-3 -7 -11 -13 -19 -13 -7 0 -11 6 -8 13
3 8 11 14 18 14 8 0 12 -6 9 -14z m-3493 -3 c0 -5 -2 -10 -4 -10 -3 0 -8 5
-11 10 -3 6 -1 10 4 10 6 0 11 -4 11 -10z m-516 -8 c2 -4 1 -14 -3 -21 -6 -9
-10 -7 -14 8 -5 20 7 29 17 13z m56 -28 c0 -8 -19 -13 -24 -6 -3 5 1 9 9 9 8
0 15 -2 15 -3z m17 -46 c2 -17 0 -19 -7 -8 -5 8 -6 18 -4 22 8 12 10 10 11
-14z m4563 16 c0 0 -9 -9 -19 -18 -14 -13 -21 -14 -27 -5 -5 8 -3 10 6 4 9 -6
12 -4 8 6 -4 10 1 15 13 15 11 0 19 -1 19 -2z m201 -17 c-10 -9 -11 -8 -5 6 3
10 9 15 12 12 3 -3 0 -11 -7 -18z m-870 0 c-7 -7 -14 -8 -21 -1 -6 6 -2 10 12
11 16 2 18 -1 9 -10z m524 3 c-3 -5 -12 -10 -18 -10 -7 0 -6 4 3 10 19 12 23
12 15 0z m-585 -41 c0 -6 7 -8 16 -5 8 3 12 2 9 -3 -8 -14 -42 -9 -42 6 0 7 4
13 9 13 4 0 8 -5 8 -11z m0 -33 c0 -2 -7 -7 -16 -10 -8 -3 -12 -2 -9 4 6 10
25 14 25 6z m387 -28 c-3 -8 -6 -5 -6 6 -1 11 2 17 5 13 3 -3 4 -12 1 -19z
m-3942 3 c3 -5 2 -12 -3 -15 -5 -3 -9 1 -9 9 0 17 3 19 12 6z m3515 -6 c0 -8
-4 -15 -10 -15 -5 0 -7 7 -4 15 4 8 8 15 10 15 2 0 4 -7 4 -15z m-3100 -36 c0
-11 -4 -18 -10 -14 -5 3 -7 12 -3 20 7 21 13 19 13 -6z m557 -11 c-3 -8 -6 -5
-6 6 -1 11 2 17 5 13 3 -3 4 -12 1 -19z m1443 -19 c0 -6 -4 -7 -10 -4 -5 3
-10 11 -10 16 0 6 5 7 10 4 6 -3 10 -11 10 -16z m-2260 -9 c0 -5 -5 -10 -11
-10 -5 0 -7 5 -4 10 3 6 8 10 11 10 2 0 4 -4 4 -10z m-432 -44 c-2 -1 -12 -8
-22 -16 -18 -14 -18 -14 -6 7 8 12 18 19 23 16 4 -3 7 -6 5 -7z m3441 -62 c-6
-8 -15 -11 -21 -8 -5 4 -5 11 1 18 6 7 7 17 3 22 -4 4 1 2 11 -5 13 -10 15
-17 6 -27z m358 11 c0 -8 -4 -12 -9 -9 -5 3 -6 10 -3 15 9 13 12 11 12 -6z
m-3513 -3 c3 -5 -1 -9 -9 -9 -8 0 -12 4 -9 9 3 4 7 8 9 8 2 0 6 -4 9 -8z
m3116 -32 c0 -5 -8 -10 -17 -10 -15 0 -16 2 -3 10 19 12 20 12 20 0z m1375
-10 c-3 -5 -12 -10 -18 -10 -7 0 -6 4 3 10 19 12 23 12 15 0z m-2047 -12 c-2
-5 -8 -9 -13 -9 -5 0 -11 4 -13 9 -1 5 4 9 13 9 9 0 14 -4 13 -9z m2013 -15
c13 -16 12 -17 -3 -4 -10 7 -18 15 -18 17 0 8 8 3 21 -13z m-291 -2 c0 -5 -18
-13 -40 -19 -48 -12 -54 3 -7 17 43 12 47 13 47 2z m-2136 -37 c3 -8 2 -12 -4
-9 -6 3 -10 10 -10 16 0 14 7 11 14 -7z m1316 10 c0 -8 -19 -13 -24 -6 -3 5 1
9 9 9 8 0 15 -2 15 -3z m70 -38 c14 -18 14 -18 -7 -6 -12 8 -19 18 -16 23 3 4
6 7 7 5 1 -2 8 -12 16 -22z m-385 4 c-3 -5 -12 -10 -18 -10 -7 0 -6 4 3 10 19
12 23 12 15 0z m499 2 c3 -5 -1 -9 -9 -9 -8 0 -12 4 -9 9 3 4 7 8 9 8 2 0 6
-4 9 -8z m870 -18 c3 -8 2 -12 -4 -9 -6 3 -10 10 -10 16 0 14 7 11 14 -7z
m133 -10 c-3 -3 -12 -4 -19 -1 -8 3 -5 6 6 6 11 1 17 -2 13 -5z m-39 -29 c-3
-3 -9 2 -12 12 -6 14 -5 15 5 6 7 -7 10 -15 7 -18z m252 11 c0 -2 -7 -7 -16
-10 -8 -3 -12 -2 -9 4 6 10 25 14 25 6z m-1160 -16 c0 -5 -5 -10 -11 -10 -5 0
-7 5 -4 10 3 6 8 10 11 10 2 0 4 -4 4 -10z m-1630 -30 c0 -5 -5 -10 -11 -10
-5 0 -7 5 -4 10 3 6 8 10 11 10 2 0 4 -4 4 -10z m770 -7 c0 -8 -5 -13 -12 -11
-18 6 -21 25 -3 25 8 0 15 -7 15 -14z m1500 7 c0 -5 -5 -10 -11 -10 -5 0 -7 5
-4 10 3 6 8 10 11 10 2 0 4 -4 4 -10z m510 -14 c0 -11 -19 -15 -25 -6 -3 5 1
10 9 10 9 0 16 -2 16 -4z m-1666 -32 c3 -8 2 -12 -4 -9 -6 3 -10 10 -10 16 0
14 7 11 14 -7z m194 -79 c-3 -3 -9 2 -12 12 -6 14 -5 15 5 6 7 -7 10 -15 7
-18z m82 21 c0 -2 -7 -7 -16 -10 -8 -3 -12 -2 -9 4 6 10 25 14 25 6z m-1725
-36 c-3 -5 -12 -10 -18 -10 -7 0 -6 4 3 10 19 12 23 12 15 0z m2401 -22 c-9
-12 -16 -19 -16 -15 0 11 24 47 28 42 2 -2 -3 -14 -12 -27z m301 -10 c-3 -8
-6 -5 -6 6 -1 11 2 17 5 13 3 -3 4 -12 1 -19z m100 6 c-3 -3 -12 -4 -19 -1 -8
3 -5 6 6 6 11 1 17 -2 13 -5z m-248 -18 c9 -11 9 -16 -1 -22 -7 -4 -10 -4 -6
1 4 4 3 14 -3 22 -6 7 -9 13 -6 13 2 0 10 -6 16 -14z m456 -31 c39 -32 29 -32
-15 0 -19 14 -30 25 -24 25 5 -1 23 -12 39 -25z m55 21 c0 -3 -4 -8 -10 -11
-5 -3 -10 -1 -10 4 0 6 5 11 10 11 6 0 10 -2 10 -4z m-2830 -14 c0 -5 -7 -9
-15 -9 -8 0 -12 4 -9 9 3 4 9 8 15 8 5 0 9 -4 9 -8z m1420 -23 c0 -5 -7 -9
-15 -9 -8 0 -15 7 -15 15 0 9 6 12 15 9 8 -4 15 -10 15 -15z m-181 -3 c9 -11
9 -16 -1 -22 -7 -4 -10 -4 -6 1 4 4 0 14 -10 21 -9 7 -12 14 -6 14 6 0 17 -6
23 -14z m1506 -6 c4 -6 -1 -7 -11 -3 -13 5 -15 3 -9 -7 5 -9 4 -11 -3 -6 -7 4
-12 11 -12 17 0 12 27 12 35 -1z m119 -42 c6 -25 4 -28 -18 -28 -29 0 -42 15
-20 24 8 3 12 2 9 -4 -3 -6 0 -10 8 -10 10 0 13 8 9 28 -6 34 3 26 12 -10z
m-87 6 c-3 -3 -12 -4 -19 -1 -8 3 -5 6 6 6 11 1 17 -2 13 -5z m-4767 -14 c0
-5 -7 -10 -15 -10 -8 0 -15 5 -15 10 0 6 7 10 15 10 8 0 15 -4 15 -10z m2700
-13 c0 -8 -7 -14 -15 -14 -11 0 -12 4 -4 14 6 7 13 13 15 13 2 0 4 -6 4 -13z
m1472 -16 c16 -19 15 -20 -5 -18 -21 1 -47 19 -47 31 0 14 37 4 52 -13z m584
-29 c-12 -11 -18 7 -10 30 l8 23 4 -23 c2 -13 1 -26 -2 -30z m-3786 29 c0 -5
-9 -11 -19 -14 -14 -3 -18 -1 -14 9 6 15 33 19 33 5z m3835 -1 c3 -6 -1 -7 -9
-4 -18 7 -21 14 -7 14 6 0 13 -4 16 -10z m-222 -15 c-3 -9 -8 -14 -10 -11 -3
3 -2 9 2 15 9 16 15 13 8 -4z m-3238 -5 c3 -5 1 -10 -4 -10 -6 0 -11 5 -11 10
0 6 2 10 4 10 3 0 8 -4 11 -10z m263 -25 c-3 -3 -9 2 -12 12 -6 14 -5 15 5 6
7 -7 10 -15 7 -18z m25 10 c-3 -9 -8 -14 -10 -11 -3 3 -2 9 2 15 9 16 15 13 8
-4z m-1946 -1 c-3 -3 -12 -4 -19 -1 -8 3 -5 6 6 6 11 1 17 -2 13 -5z m33 -6
c0 -7 -5 -20 -10 -28 -8 -12 -10 -9 -10 13 0 15 5 27 10 27 6 0 10 -6 10 -12z
m3520 -2 c0 -3 -4 -8 -10 -11 -5 -3 -10 -1 -10 4 0 6 5 11 10 11 6 0 10 -2 10
-4z m-2140 -66 c0 -5 -2 -10 -4 -10 -3 0 -8 5 -11 10 -3 6 -1 10 4 10 6 0 11
-4 11 -10z m900 0 c0 -5 -5 -10 -11 -10 -5 0 -7 5 -4 10 3 6 8 10 11 10 2 0 4
-4 4 -10z m1720 -10 c0 -5 -2 -10 -4 -10 -3 0 -8 5 -11 10 -3 6 -1 10 4 10 6
0 11 -4 11 -10z m-228 -42 c-15 -15 -24 -6 -16 16 5 12 10 14 17 7 8 -8 8 -14
-1 -23z m-212 -9 c0 -5 -4 -7 -10 -4 -5 3 -10 1 -10 -6 0 -7 -3 -10 -6 -6 -8
7 4 27 17 27 5 0 9 -5 9 -11z m-540 -43 c0 -3 -4 -8 -10 -11 -5 -3 -10 -1 -10
4 0 6 5 11 10 11 6 0 10 -2 10 -4z m-2100 -41 c0 -2 -6 -5 -13 -8 -8 -3 -14 1
-14 8 0 7 6 11 14 8 7 -3 13 -6 13 -8z m480 -1 c0 -8 -19 -13 -24 -6 -3 5 1 9
9 9 8 0 15 -2 15 -3z m490 -28 c0 -2 -9 -6 -20 -9 -11 -3 -18 -1 -14 4 5 9 34
13 34 5z m2290 -10 c0 -3 -4 -8 -10 -11 -5 -3 -10 -1 -10 4 0 6 5 11 10 11 6
0 10 -2 10 -4z m-70 -46 c8 -15 8 -18 -3 -14 -8 3 -14 11 -14 19 0 20 4 19 17
-5z m710 8 c0 -4 -4 -8 -10 -8 -5 0 -10 -9 -10 -21 0 -11 -5 -17 -10 -14 -7 4
-7 12 0 24 5 10 7 20 5 23 -3 3 2 5 10 5 8 0 15 -4 15 -9z m-4193 -24 c-3 -3
-12 -4 -19 -1 -8 3 -5 6 6 6 11 1 17 -2 13 -5z m-607 -14 c0 -5 -4 -10 -10
-10 -5 0 -10 5 -10 10 0 6 5 10 10 10 6 0 10 -4 10 -10z m2372 -4 c7 4 8 2 4
-4 -11 -18 -26 -14 -25 6 0 10 3 12 6 4 2 -6 10 -9 15 -6z m-792 -30 c-14 -14
-24 0 -16 21 6 15 8 15 16 3 6 -9 5 -19 0 -24z m-1115 -16 c3 -5 1 -10 -4 -10
-6 0 -11 5 -11 10 0 6 2 10 4 10 3 0 8 -4 11 -10z m377 -22 c-11 -11 -32 -3
-32 12 0 4 9 6 21 3 13 -4 17 -9 11 -15z m1498 -27 c0 -5 -7 -11 -14 -14 -10
-4 -13 -1 -9 9 6 15 23 19 23 5z m1580 2 c0 -5 -5 -15 -10 -23 -7 -12 -9 -10
-7 8 1 19 17 33 17 15z m-3770 -23 c0 -5 -7 -7 -15 -4 -8 4 -15 8 -15 10 0 2
7 4 15 4 8 0 15 -4 15 -10z m3440 -30 c0 -5 -5 -10 -11 -10 -5 0 -7 5 -4 10 3
6 8 10 11 10 2 0 4 -4 4 -10z m-1293 -26 c-9 -9 -28 6 -21 18 4 6 10 6 17 -1
6 -6 8 -13 4 -17z m-32 -24 c3 -5 1 -10 -4 -10 -6 0 -11 5 -11 10 0 6 2 10 4
10 3 0 8 -4 11 -10z m552 -42 c-3 -8 -6 -5 -6 6 -1 11 2 17 5 13 3 -3 4 -12 1
-19z m638 -27 c-3 -6 -11 -8 -17 -5 -6 4 -5 9 3 15 16 10 23 4 14 -10z m151
-7 c-9 -8 -16 -22 -16 -30 0 -8 -7 -14 -15 -14 -27 0 5 57 33 59 10 1 9 -3 -2
-15z m-189 -29 c0 -8 -4 -12 -9 -9 -5 3 -6 10 -3 15 9 13 12 11 12 -6z m320 0
c0 -8 -4 -12 -9 -9 -5 3 -6 10 -3 15 9 13 12 11 12 -6z m-600 -20 c4 -4 2 -5
-4 -1 -7 4 -13 2 -13 -4 0 -6 -4 -8 -10 -5 -5 3 -10 10 -10 15 0 10 27 7 37
-5z m-397 -4 c0 -5 -7 -11 -15 -15 -15 -5 -20 5 -8 17 9 10 23 9 23 -2z m2340
-32 c11 -19 10 -20 -10 -9 -11 6 -18 15 -15 21 9 13 13 11 25 -12z m-120 7 c0
-3 -4 -8 -10 -11 -5 -3 -10 -1 -10 4 0 6 5 11 10 11 6 0 10 -2 10 -4z m-2360
-10 c0 -2 -7 -7 -16 -10 -8 -3 -12 -2 -9 4 6 10 25 14 25 6z m600 -6 c0 -5 8
-7 18 -4 14 5 14 4 2 -4 -8 -6 -18 -8 -22 -6 -4 3 -8 -1 -8 -8 0 -10 -3 -9 -9
2 -6 8 -7 18 -5 22 7 11 24 10 24 -2z m-385 -38 c-3 -3 -11 0 -18 7 -9 10 -8
11 6 5 10 -3 15 -9 12 -12z m-40 -1 c-9 -8 -36 -10 -30 -2 2 4 11 8 20 8 8 0
13 -3 10 -6z m-1031 -9 c3 -5 -1 -9 -9 -9 -8 0 -12 4 -9 9 3 4 7 8 9 8 2 0 6
-4 9 -8z m-104 -26 c0 -3 -4 -8 -10 -11 -5 -3 -10 -1 -10 4 0 6 5 11 10 11 6
0 10 -2 10 -4z m1094 -12 c3 -8 2 -12 -4 -9 -6 3 -10 10 -10 16 0 14 7 11 14
-7z m148 9 c-6 -3 -9 -10 -5 -16 4 -7 -1 -6 -10 2 -21 17 -21 17 6 18 12 0 16
-1 9 -4z m-242 -43 c0 -5 -2 -10 -4 -10 -3 0 -8 5 -11 10 -3 6 -1 10 4 10 6 0
11 -4 11 -10z m-265 -57 c-2 -10 -4 -19 -5 -20 -2 -2 -3 -8 -4 -15 0 -6 -6
-13 -13 -15 -7 -3 -9 3 -6 16 3 12 9 21 14 21 5 0 8 3 8 8 -2 11 1 22 5 22 2
0 3 -8 1 -17z m842 11 c-3 -3 -12 -4 -19 -1 -8 3 -5 6 6 6 11 1 17 -2 13 -5z
m-2950 -26 c-3 -8 -6 -5 -6 6 -1 11 2 17 5 13 3 -3 4 -12 1 -19z m1713 18 c0
-2 -7 -6 -15 -10 -8 -3 -15 -1 -15 4 0 6 7 10 15 10 8 0 15 -2 15 -4z m1091
-19 c-10 -9 -11 -8 -5 6 3 10 9 15 12 12 3 -3 0 -11 -7 -18z m-737 -2 c3 -8 1
-15 -4 -15 -6 0 -10 7 -10 15 0 8 2 15 4 15 2 0 6 -7 10 -15z m922 -12 c-10
-10 -19 5 -10 18 6 11 8 11 12 0 2 -7 1 -15 -2 -18z m-101 7 c3 -6 -1 -7 -9
-4 -18 7 -21 14 -7 14 6 0 13 -4 16 -10z m604 -44 c0 -7 -2 -6 -6 2 -2 6 -9 9
-14 6 -6 -3 -5 -12 2 -22 12 -16 11 -16 -4 -1 -22 19 -13 56 9 38 8 -6 14 -17
13 -23z m1841 21 c0 -5 -7 -6 -15 -3 -9 3 -18 -1 -21 -9 -4 -8 -10 -15 -15
-15 -5 0 -4 9 3 19 12 19 48 25 48 8z m-3315 -18 c-10 -15 -25 -10 -19 6 4 8
10 12 15 9 5 -3 7 -10 4 -15z m790 12 c3 -5 1 -12 -5 -16 -5 -3 -10 1 -10 9 0
18 6 21 15 7z m-382 -22 c-8 -8 -13 -7 -18 2 -5 8 -4 10 3 5 7 -4 12 -2 12 5
0 7 3 9 7 6 4 -4 2 -12 -4 -18z m1907 17 c0 -3 -4 -8 -10 -11 -5 -3 -10 -1
-10 4 0 6 5 11 10 11 6 0 10 -2 10 -4z m-1005 -26 c-3 -5 -14 -10 -23 -9 -14
0 -13 2 3 9 27 11 27 11 20 0z m195 6 c0 -2 -8 -10 -17 -17 -16 -13 -17 -12
-4 4 13 16 21 21 21 13z m50 0 c0 -3 -4 -8 -10 -11 -5 -3 -10 -1 -10 4 0 6 5
11 10 11 6 0 10 -2 10 -4z m-516 -21 c-6 -16 -24 -21 -24 -7 0 11 11 22 21 22
5 0 6 -7 3 -15z m-2964 -1 c0 -8 -19 -13 -24 -6 -3 5 1 9 9 9 8 0 15 -2 15 -3z
m1420 -4 c0 -5 -2 -10 -4 -10 -3 0 -8 5 -11 10 -3 6 -1 10 4 10 6 0 11 -4 11
-10z m2440 0 c0 -5 -5 -10 -11 -10 -5 0 -7 5 -4 10 3 6 8 10 11 10 2 0 4 -4 4
-10z m1500 0 c0 -5 -5 -10 -11 -10 -5 0 -7 5 -4 10 3 6 8 10 11 10 2 0 4 -4 4
-10z m-3320 -31 c-12 -22 -16 -23 -26 -7 -4 7 -3 8 4 4 11 -7 17 6 13 27 -1 5
3 6 9 2 7 -4 7 -12 0 -26z m206 -1 c5 -7 2 -8 -5 -4 -8 5 -14 0 -18 -13 -6
-24 -23 -18 -23 7 0 20 36 27 46 10z m404 -22 c0 -10 -34 2 -38 13 -3 10 0 10
17 2 11 -7 21 -13 21 -15z m1550 14 c0 -5 -5 -10 -11 -10 -5 0 -7 5 -4 10 3 6
8 10 11 10 2 0 4 -4 4 -10z m54 2 c3 -5 -1 -9 -9 -9 -8 0 -12 4 -9 9 3 4 7 8
9 8 2 0 6 -4 9 -8z m-768 -22 c0 -11 -3 -20 -7 -20 -4 0 -10 -8 -12 -17 -3
-10 -5 -4 -6 14 0 17 5 34 12 36 6 3 12 6 12 6 1 1 1 -8 1 -19z m-966 0 c0 -5
-4 -10 -10 -10 -5 0 -10 5 -10 10 0 6 5 10 10 10 6 0 10 -4 10 -10z m1753 -5
c-3 -9 -8 -14 -10 -11 -3 3 -2 9 2 15 9 16 15 13 8 -4z m-2222 -28 c-10 -9
-11 -8 -5 6 3 10 9 15 12 12 3 -3 0 -11 -7 -18z m869 13 c0 -5 -4 -10 -10 -10
-5 0 -10 5 -10 10 0 6 5 10 10 10 6 0 10 -4 10 -10z m310 4 c0 -8 -19 -13 -24
-6 -3 5 1 9 9 9 8 0 15 -2 15 -3z m-3240 -44 c0 -5 -2 -10 -4 -10 -3 0 -8 5
-11 10 -3 6 -1 10 4 10 6 0 11 -4 11 -10z m1235 0 c3 -6 -1 -7 -9 -4 -18 7
-21 14 -7 14 6 0 13 -4 16 -10z m1853 -8 c2 -6 -6 -10 -17 -9 -22 1 -26 8 -14
21 9 9 26 3 31 -12z m-2518 -16 c0 -11 -19 -15 -25 -6 -3 5 1 10 9 10 9 0 16
-2 16 -4z m1471 -23 c12 -16 12 -17 -2 -6 -9 7 -20 9 -24 5 -5 -4 -5 -1 -1 6
9 16 11 15 27 -5z m-298 -8 c-3 -9 -8 -14 -10 -11 -3 3 -2 9 2 15 9 16 15 13
8 -4z m701 -24 c3 -5 -2 -15 -12 -22 -15 -12 -16 -12 -5 2 7 9 10 19 6 22 -3
4 -4 7 0 7 3 0 8 -4 11 -9z m149 -11 c3 -11 1 -18 -4 -14 -5 3 -9 12 -9 20 0
20 7 17 13 -6z m-835 -15 c-3 -3 -9 2 -12 12 -6 14 -5 15 5 6 7 -7 10 -15 7
-18z m962 11 c0 -2 -8 -10 -17 -17 -16 -13 -17 -12 -4 4 13 16 21 21 21 13z
m-505 -26 c-3 -5 -12 -10 -18 -10 -7 0 -6 4 3 10 19 12 23 12 15 0z m1610 -8
c-3 -3 -11 0 -18 7 -9 10 -8 11 6 5 10 -3 15 -9 12 -12z m-1519 -20 c-17 -16
-18 -16 -5 5 7 12 15 20 18 17 3 -2 -3 -12 -13 -22z m921 2 c3 -8 9 -11 14 -8
5 3 9 0 9 -7 0 -6 -8 -9 -20 -6 -20 5 -34 -6 -43 -33 -2 -8 -3 -2 -1 13 3 25
1 27 -17 22 -22 -7 -21 1 3 31 11 15 48 6 55 -12z m-1540 -14 c1 -11 -2 -20
-8 -20 -10 0 -12 23 -2 33 9 9 9 10 10 -13z m83 10 c0 -5 -5 -10 -11 -10 -5 0
-7 5 -4 10 3 6 8 10 11 10 2 0 4 -4 4 -10z m184 -25 c3 -8 1 -15 -4 -15 -6 0
-10 7 -10 15 0 8 2 15 4 15 2 0 6 -7 10 -15z m761 -3 c-3 -3 -11 0 -18 7 -9
10 -8 11 6 5 10 -3 15 -9 12 -12z m-1780 -41 c3 -5 2 -12 -3 -15 -5 -3 -9 1
-9 9 0 17 3 19 12 6z m410 -1 c3 -5 1 -10 -4 -10 -6 0 -11 5 -11 10 0 6 2 10
4 10 3 0 8 -4 11 -10z m465 4 c0 -8 -19 -13 -24 -6 -3 5 1 9 9 9 8 0 15 -2 15
-3z m754 -9 c-4 -8 -8 -15 -10 -15 -2 0 -4 7 -4 15 0 8 4 15 10 15 5 0 7 -7 4
-15z m641 -5 c-3 -5 -12 -10 -18 -10 -7 0 -6 4 3 10 19 12 23 12 15 0z m-965
-10 c0 -5 -5 -10 -11 -10 -5 0 -7 5 -4 10 3 6 8 10 11 10 2 0 4 -4 4 -10z
m-1515 -20 c3 -5 2 -10 -4 -10 -5 0 -13 5 -16 10 -3 6 -2 10 4 10 5 0 13 -4
16 -10z m1802 -5 c0 -8 -4 -12 -9 -9 -4 3 -8 9 -8 15 0 5 4 9 8 9 5 0 9 -7 9
-15z m713 -5 c0 -5 -2 -10 -4 -10 -3 0 -8 5 -11 10 -3 6 -1 10 4 10 6 0 11 -4
11 -10z m-1376 -16 c3 -8 2 -12 -4 -9 -6 3 -10 10 -10 16 0 14 7 11 14 -7z
m47 -1 c13 -16 12 -17 -3 -4 -17 13 -22 21 -14 21 2 0 10 -8 17 -17z m200 7
c0 -3 2 -14 4 -25 4 -19 3 -19 -10 -1 -8 10 -18 15 -24 11 -6 -3 -11 1 -11 9
0 13 39 20 41 6z m-1007 -18 c3 -5 -1 -9 -9 -9 -8 0 -12 4 -9 9 3 4 7 8 9 8 2
0 6 -4 9 -8z m1087 -15 c-10 -9 -11 -8 -5 6 3 10 9 15 12 12 3 -3 0 -11 -7
-18z m943 5 c3 -5 -1 -9 -9 -9 -8 0 -12 4 -9 9 3 4 7 8 9 8 2 0 6 -4 9 -8z
m-644 -12 c0 -5 -4 -10 -10 -10 -5 0 -10 5 -10 10 0 6 5 10 10 10 6 0 10 -4
10 -10z m504 2 c3 -5 -1 -9 -9 -9 -8 0 -12 4 -9 9 3 4 7 8 9 8 2 0 6 -4 9 -8z
m-1114 -16 c0 -3 -4 -8 -10 -11 -5 -3 -10 -1 -10 4 0 6 5 11 10 11 6 0 10 -2
10 -4z m-590 -36 c0 -5 -4 -10 -10 -10 -5 0 -10 5 -10 10 0 6 5 10 10 10 6 0
10 -4 10 -10z m1607 -24 c-4 -9 -11 -16 -17 -16 -13 0 -13 17 0 25 6 4 7 12 4
18 -5 9 -4 9 6 0 7 -6 10 -19 7 -27z m-964 1 c6 -15 -27 -17 -40 -2 -5 4 -3 5
4 1 6 -3 14 -2 18 4 8 13 12 13 18 -3z m-293 -7 c8 -5 11 -10 5 -10 -5 0 -17
5 -25 10 -8 5 -10 10 -5 10 6 0 17 -5 25 -10z m70 -20 c0 -5 -2 -10 -4 -10 -3
0 -8 5 -11 10 -3 6 -1 10 4 10 6 0 11 -4 11 -10z m1490 6 c0 -3 -4 -8 -10 -11
-5 -3 -10 -1 -10 4 0 6 5 11 10 11 6 0 10 -2 10 -4z m10 -41 c0 -8 -4 -15 -10
-15 -5 0 -7 7 -4 15 4 8 8 15 10 15 2 0 4 -7 4 -15z m220 -11 c0 -14 -12 -19
-23 -8 -9 9 4 35 14 28 5 -3 9 -12 9 -20z m-1999 -1 c12 -15 12 -16 -4 -10
-10 4 -23 7 -28 7 -6 0 -7 5 -4 10 9 15 21 12 36 -7z m-307 -39 c3 -8 2 -12
-4 -9 -6 3 -10 10 -10 16 0 14 7 11 14 -7z m273 -5 c2 -16 -1 -19 -9 -11 -5 5
-7 15 -4 21 10 15 12 14 13 -10z m1258 -7 c-8 -8 -25 10 -19 20 4 6 9 5 15 -3
4 -7 6 -15 4 -17z m-1560 -3 c-4 -5 -14 -8 -23 -8 -15 1 -15 2 1 6 9 2 14 9
11 15 -4 7 -2 8 5 4 6 -4 9 -12 6 -17z m745 -14 c0 -18 -17 -28 -25 -15 -4 6
-12 8 -18 4 -7 -3 -3 2 7 10 11 9 14 16 8 16 -7 0 -12 5 -12 10 0 7 6 7 20 0
11 -6 20 -17 20 -25z m430 -19 c0 -3 -4 -8 -10 -11 -5 -3 -10 -1 -10 4 0 6 5
11 10 11 6 0 10 -2 10 -4z m216 -11 c-1 -8 -5 -17 -8 -21 -5 -4 -4 16 1 34 3
9 9 -1 7 -13z m-773 -10 c4 -8 2 -17 -3 -20 -6 -4 -10 3 -10 14 0 25 6 27 13
6z m747 11 c0 -2 -7 -7 -16 -10 -8 -3 -12 -2 -9 4 6 10 25 14 25 6z m-995 -26
c3 -6 -1 -7 -9 -4 -18 7 -21 14 -7 14 6 0 13 -4 16 -10z m801 -17 c-10 -10
-19 5 -10 18 6 11 8 11 12 0 2 -7 1 -15 -2 -18z m-656 3 c0 -2 -8 -10 -17 -17
-16 -13 -17 -12 -4 4 13 16 21 21 21 13z m493 -11 c-3 -9 -8 -14 -10 -11 -3 3
-2 9 2 15 9 16 15 13 8 -4z m787 11 c0 -2 -7 -7 -16 -10 -8 -3 -12 -2 -9 4 6
10 25 14 25 6z m-644 -31 c1 -8 -1 -13 -6 -10 -5 3 -10 -1 -13 -7 -3 -10 -7
-10 -17 -1 -9 8 -7 13 9 18 13 4 19 11 15 18 -4 7 -3 8 1 4 5 -4 10 -14 11
-22z m480 -12 c-11 -11 -19 6 -11 24 8 17 8 17 12 0 3 -10 2 -21 -1 -24z
m-945 -6 c-10 -9 -11 -8 -5 6 3 10 9 15 12 12 3 -3 0 -11 -7 -18z m680 5 c-7
-2 -18 1 -23 6 -8 8 -4 9 13 5 13 -4 18 -8 10 -11z m-1067 0 c3 -5 -1 -9 -9
-9 -8 0 -12 4 -9 9 3 4 7 8 9 8 2 0 6 -4 9 -8z m-19 -31 c3 -5 2 -12 -3 -15
-5 -3 -9 1 -9 9 0 17 3 19 12 6z m769 -7 c2 -6 -4 -18 -14 -26 -16 -15 -19
-14 -28 7 -6 13 -9 25 -7 27 9 8 45 3 49 -8z m-803 -17 c-10 -9 -11 -8 -5 6 3
10 9 15 12 12 3 -3 0 -11 -7 -18z m-551 -3 c0 -8 -19 -13 -24 -6 -3 5 1 9 9 9
8 0 15 -2 15 -3z m796 -6 c4 -7 3 -8 -4 -4 -7 4 -12 2 -12 -5 0 -7 -3 -10 -6
-6 -6 5 3 27 11 27 2 0 7 -5 11 -12z m-231 -8 c-3 -5 -1 -10 4 -10 6 0 11 -5
11 -11 0 -8 -4 -9 -13 0 -8 6 -18 7 -23 3 -4 -4 -2 1 5 11 14 18 26 24 16 7z
m-39 -19 c2 -7 0 -7 -3 -1 -3 7 -9 8 -17 1 -9 -8 -13 -7 -13 3 0 17 30 14 33
-3z m407 4 c-3 -9 -8 -14 -10 -11 -3 3 -2 9 2 15 9 16 15 13 8 -4z m-818 -25
c3 -5 -1 -10 -10 -10 -9 0 -13 5 -10 10 3 6 8 10 10 10 2 0 7 -4 10 -10z m955
0 c0 -5 -5 -10 -11 -10 -5 0 -7 5 -4 10 3 6 8 10 11 10 2 0 4 -4 4 -10z m-893
-15 c0 -8 -4 -12 -9 -9 -5 3 -6 10 -3 15 9 13 12 11 12 -6z m582 -8 c0 -9 -2
-8 -6 1 -2 6 -10 9 -15 6 -7 -4 -8 -2 -4 5 9 13 26 5 25 -12z m1266 3 c3 -5 1
-10 -4 -10 -6 0 -11 5 -11 10 0 6 2 10 4 10 3 0 8 -4 11 -10z m-825 -44 c0 -3
-4 -8 -10 -11 -5 -3 -10 -1 -10 4 0 6 5 11 10 11 6 0 10 -2 10 -4z m740 -90
c0 -3 -4 -8 -10 -11 -5 -3 -10 -1 -10 4 0 6 5 11 10 11 6 0 10 -2 10 -4z m445
-18 c-4 -13 -14 -30 -22 -38 -13 -13 -13 -10 1 16 8 17 12 34 9 38 -4 3 -1 6
6 6 8 0 10 -8 6 -22z m-2105 -4 c0 -8 -5 -12 -10 -9 -6 4 -8 11 -5 16 9 14 15
11 15 -7z m2070 -4 c0 -5 -4 -10 -10 -10 -5 0 -10 5 -10 10 0 6 5 10 10 10 6
0 10 -4 10 -10z m-50 -34 c0 -11 -19 -15 -25 -6 -3 5 1 10 9 10 9 0 16 -2 16
-4z m31 -19 c-10 -9 -11 -8 -5 6 3 10 9 15 12 12 3 -3 0 -11 -7 -18z m70 -194
c13 -16 12 -17 -3 -4 -17 13 -22 21 -14 21 2 0 10 -8 17 -17z m-2196 -83 c3
-5 1 -10 -4 -10 -6 0 -11 5 -11 10 0 6 2 10 4 10 3 0 8 -4 11 -10z m1235 -84
c0 -2 -7 -7 -16 -10 -8 -3 -12 -2 -9 4 6 10 25 14 25 6z m1160 -37 c0 -5 -4
-9 -10 -9 -5 0 -10 7 -10 16 0 8 5 12 10 9 6 -3 10 -10 10 -16z m-40 -49 c0
-5 -5 -10 -11 -10 -5 0 -7 5 -4 10 3 6 8 10 11 10 2 0 4 -4 4 -10z m65 -260
c3 -5 1 -10 -4 -10 -6 0 -11 5 -11 10 0 6 2 10 4 10 3 0 8 -4 11 -10z m1 -47
c-10 -10 -19 5 -10 18 6 11 8 11 12 0 2 -7 1 -15 -2 -18z"/>
</g>
</svg>
